<?xml version="1.0" encoding="UTF-8"?>
<svg width="177px" height="75px" viewBox="0 0 177 75" version="1.1" xmlns="http://www.w3.org/2000/svg" xmlns:xlink="http://www.w3.org/1999/xlink">
    <!-- Generator: Sketch 55.2 (78181) - https://sketchapp.com -->
    <title>Group</title>
    <desc>Created with Sketch.</desc>
    <g id="Page-1" stroke="none" stroke-width="1" fill="none" fill-rule="evenodd">
        <g id="Group" transform="translate(-0.000000, 0.000000)" fill="#F60030">
            <path d="M0,0 L83.0947685,0 C83.6701594,-1.05697591e-16 84.2176759,0.247814598 84.5974007,0.680115052 L115.779957,36.1801151 C116.443114,36.9350908 116.443114,38.0649092 115.779957,38.8198849 L84.5974007,74.3198849 C84.2176759,74.7521854 83.6701594,75 83.0947685,75 L0,75 L0,0 Z" id="Rectangle"></path>
            <path d="M144.2987,0.340057526 L176.359639,36.8400575 C176.691217,37.2175454 176.691217,37.7824546 176.359639,38.1599425 L144.2987,74.6599425 C144.108838,74.8760927 143.83508,75 143.547384,75 L118.20938,75 C117.657095,75 117.20938,74.5522847 117.20938,74 C117.20938,73.7571184 117.297775,73.5225384 117.458063,73.3400575 L148.359639,38.1599425 C148.691217,37.7824546 148.691217,37.2175454 148.359639,36.8400575 L117.458063,1.65994247 C117.093587,1.24500203 117.134497,0.613160032 117.549437,0.248683868 C117.731918,0.0883959595 117.966498,-1.5096956e-15 118.20938,0 L143.547384,0 C143.83508,-3.49454017e-15 144.108838,0.123907299 144.2987,0.340057526 Z" id="Path"></path>
        </g>
    </g>
</svg>